<svg width="228" height="66" viewBox="0 0 228 66" fill="none" xmlns="http://www.w3.org/2000/svg">
<g clip-path="url(#clip0_21_3)">
<path d="M11.8301 19.9062L20.1973 40.7891L28.5645 19.9062H32.9414V45.5H29.5664V35.5332L29.8828 24.7754L21.4805 45.5H18.8965L10.5117 24.8281L10.8457 35.5332V45.5H7.4707V19.9062H11.8301ZM44.6133 40.7363L49.043 26.4805H52.5234L44.877 48.4355C43.6934 51.5996 41.8125 53.1816 39.2344 53.1816L38.6191 53.1289L37.4062 52.9004V50.2637L38.2852 50.334C39.3867 50.334 40.2422 50.1113 40.8516 49.666C41.4727 49.2207 41.9824 48.4062 42.3809 47.2227L43.1016 45.2891L36.3164 26.4805H39.8672L44.6133 40.7363ZM63.4922 34.0918C60.5977 33.2598 58.4883 32.2402 57.1641 31.0332C55.8516 29.8145 55.1953 28.3145 55.1953 26.5332C55.1953 24.5176 55.998 22.8535 57.6035 21.541C59.2207 20.2168 61.3184 19.5547 63.8965 19.5547C65.6543 19.5547 67.2188 19.8945 68.5898 20.5742C69.9727 21.2539 71.0391 22.1914 71.7891 23.3867C72.5508 24.582 72.9316 25.8887 72.9316 27.3066H69.5391C69.5391 25.7598 69.0469 24.5469 68.0625 23.668C67.0781 22.7773 65.6895 22.332 63.8965 22.332C62.2324 22.332 60.9316 22.7012 59.9941 23.4395C59.0684 24.166 58.6055 25.1797 58.6055 26.4805C58.6055 27.5234 59.0449 28.4082 59.9238 29.1348C60.8145 29.8496 62.3203 30.5059 64.4414 31.1035C66.5742 31.7012 68.2383 32.3633 69.4336 33.0898C70.6406 33.8047 71.5312 34.6426 72.1055 35.6035C72.6914 36.5645 72.9844 37.6953 72.9844 38.9961C72.9844 41.0703 72.1758 42.7344 70.5586 43.9883C68.9414 45.2305 66.7793 45.8516 64.0723 45.8516C62.3145 45.8516 60.6738 45.5176 59.1504 44.8496C57.627 44.1699 56.4492 43.2441 55.6172 42.0723C54.7969 40.9004 54.3867 39.5703 54.3867 38.082H57.7793C57.7793 39.6289 58.3477 40.8535 59.4844 41.7559C60.6328 42.6465 62.1621 43.0918 64.0723 43.0918C65.8535 43.0918 67.2188 42.7285 68.168 42.002C69.1172 41.2754 69.5918 40.2852 69.5918 39.0312C69.5918 37.7773 69.1523 36.8105 68.2734 36.1309C67.3945 35.4395 65.8008 34.7598 63.4922 34.0918ZM82.125 36.6934L80.0859 38.8203V45.5H76.834V18.5H80.0859V34.8301L81.8262 32.7383L87.75 26.4805H91.7051L84.3047 34.4258L92.5664 45.5H88.752L82.125 36.6934ZM106.805 45.5C106.617 45.125 106.465 44.457 106.348 43.4961C104.836 45.0664 103.031 45.8516 100.934 45.8516C99.0586 45.8516 97.5176 45.3242 96.3105 44.2695C95.1152 43.2031 94.5176 41.8555 94.5176 40.2266C94.5176 38.2461 95.2676 36.7109 96.7676 35.6211C98.2793 34.5195 100.4 33.9688 103.131 33.9688H106.295V32.4746C106.295 31.3379 105.955 30.4355 105.275 29.7676C104.596 29.0879 103.594 28.748 102.27 28.748C101.109 28.748 100.137 29.041 99.3516 29.627C98.5664 30.2129 98.1738 30.9219 98.1738 31.7539H94.9043C94.9043 30.8047 95.2383 29.8906 95.9062 29.0117C96.5859 28.1211 97.5 27.418 98.6484 26.9023C99.8086 26.3867 101.08 26.1289 102.463 26.1289C104.654 26.1289 106.371 26.6797 107.613 27.7812C108.855 28.8711 109.5 30.377 109.547 32.2988V41.0527C109.547 42.7988 109.77 44.1875 110.215 45.2188V45.5H106.805ZM101.408 43.0215C102.428 43.0215 103.395 42.7578 104.309 42.2305C105.223 41.7031 105.885 41.0176 106.295 40.1738V36.2715H103.746C99.7617 36.2715 97.7695 37.4375 97.7695 39.7695C97.7695 40.7891 98.1094 41.5859 98.7891 42.1602C99.4688 42.7344 100.342 43.0215 101.408 43.0215ZM119.057 21.875V26.4805H122.607V28.9941H119.057V40.7891C119.057 41.5508 119.215 42.125 119.531 42.5117C119.848 42.8867 120.387 43.0742 121.148 43.0742C121.523 43.0742 122.039 43.0039 122.695 42.8633V45.5C121.84 45.7344 121.008 45.8516 120.199 45.8516C118.746 45.8516 117.65 45.4121 116.912 44.5332C116.174 43.6543 115.805 42.4062 115.805 40.7891V28.9941H112.342V26.4805H115.805V21.875H119.057ZM134.314 45.8516C131.736 45.8516 129.639 45.0078 128.021 43.3203C126.404 41.6211 125.596 39.3535 125.596 36.5176V35.9199C125.596 34.0332 125.953 32.3516 126.668 30.875C127.395 29.3867 128.402 28.2266 129.691 27.3945C130.992 26.5508 132.398 26.1289 133.91 26.1289C136.383 26.1289 138.305 26.9434 139.676 28.5723C141.047 30.2012 141.732 32.5332 141.732 35.5684V36.9219H128.848C128.895 38.7969 129.439 40.3145 130.482 41.4746C131.537 42.623 132.873 43.1973 134.49 43.1973C135.639 43.1973 136.611 42.9629 137.408 42.4941C138.205 42.0254 138.902 41.4043 139.5 40.6309L141.486 42.1777C139.893 44.627 137.502 45.8516 134.314 45.8516ZM133.91 28.8008C132.598 28.8008 131.496 29.2812 130.605 30.2422C129.715 31.1914 129.164 32.5273 128.953 34.25H138.48V34.0039C138.387 32.3516 137.941 31.0742 137.145 30.1719C136.348 29.2578 135.27 28.8008 133.91 28.8008Z" fill="white"/>
<path d="M156.586 40.4551C156.586 39.5762 156.252 38.8965 155.584 38.416C154.928 37.9238 153.773 37.502 152.121 37.1504C150.48 36.7988 149.174 36.377 148.201 35.8848C147.24 35.3926 146.525 34.8066 146.057 34.127C145.6 33.4473 145.371 32.6387 145.371 31.7012C145.371 30.1426 146.027 28.8242 147.34 27.7461C148.664 26.668 150.352 26.1289 152.402 26.1289C154.559 26.1289 156.305 26.6855 157.641 27.7988C158.988 28.9121 159.662 30.3359 159.662 32.0703H156.393C156.393 31.1797 156.012 30.4121 155.25 29.7676C154.5 29.123 153.551 28.8008 152.402 28.8008C151.219 28.8008 150.293 29.0586 149.625 29.5742C148.957 30.0898 148.623 30.7637 148.623 31.5957C148.623 32.3809 148.934 32.9727 149.555 33.3711C150.176 33.7695 151.295 34.1504 152.912 34.5137C154.541 34.877 155.859 35.3105 156.867 35.8145C157.875 36.3184 158.619 36.9277 159.1 37.6426C159.592 38.3457 159.838 39.207 159.838 40.2266C159.838 41.9258 159.158 43.291 157.799 44.3223C156.439 45.3418 154.676 45.8516 152.508 45.8516C150.984 45.8516 149.637 45.582 148.465 45.043C147.293 44.5039 146.373 43.7539 145.705 42.793C145.049 41.8203 144.721 40.7715 144.721 39.6465H147.973C148.031 40.7363 148.465 41.6035 149.273 42.248C150.094 42.8809 151.172 43.1973 152.508 43.1973C153.738 43.1973 154.723 42.9512 155.461 42.459C156.211 41.9551 156.586 41.2871 156.586 40.4551ZM167.326 28.7832C168.768 27.0137 170.643 26.1289 172.951 26.1289C176.971 26.1289 178.998 28.3965 179.033 32.9316V45.5H175.781V32.9141C175.77 31.543 175.453 30.5293 174.832 29.873C174.223 29.2168 173.268 28.8887 171.967 28.8887C170.912 28.8887 169.986 29.1699 169.189 29.7324C168.393 30.2949 167.771 31.0332 167.326 31.9473V45.5H164.074V18.5H167.326V28.7832ZM183.041 35.8145C183.041 33.9512 183.404 32.2754 184.131 30.7871C184.869 29.2988 185.889 28.1504 187.189 27.3418C188.502 26.5332 189.996 26.1289 191.672 26.1289C194.262 26.1289 196.354 27.0254 197.947 28.8184C199.553 30.6113 200.355 32.9961 200.355 35.9727V36.2012C200.355 38.0527 199.998 39.7168 199.283 41.1934C198.58 42.6582 197.566 43.8008 196.242 44.6211C194.93 45.4414 193.418 45.8516 191.707 45.8516C189.129 45.8516 187.037 44.9551 185.432 43.1621C183.838 41.3691 183.041 38.9961 183.041 36.043V35.8145ZM186.311 36.2012C186.311 38.3105 186.797 40.0039 187.77 41.2812C188.754 42.5586 190.066 43.1973 191.707 43.1973C193.359 43.1973 194.672 42.5527 195.645 41.2637C196.617 39.9629 197.104 38.1465 197.104 35.8145C197.104 33.7285 196.605 32.041 195.609 30.752C194.625 29.4512 193.312 28.8008 191.672 28.8008C190.066 28.8008 188.771 29.4395 187.787 30.7168C186.803 31.9941 186.311 33.8223 186.311 36.2012ZM220.5 36.2012C220.5 39.0957 219.838 41.4277 218.514 43.1973C217.189 44.9668 215.396 45.8516 213.135 45.8516C210.826 45.8516 209.01 45.1191 207.686 43.6543V52.8125H204.434V26.4805H207.404L207.562 28.5898C208.887 26.9492 210.727 26.1289 213.082 26.1289C215.367 26.1289 217.172 26.9902 218.496 28.7129C219.832 30.4355 220.5 32.832 220.5 35.9023V36.2012ZM217.248 35.832C217.248 33.6875 216.791 31.9941 215.877 30.752C214.963 29.5098 213.709 28.8887 212.115 28.8887C210.146 28.8887 208.67 29.7617 207.686 31.5078V40.5957C208.658 42.3301 210.146 43.1973 212.15 43.1973C213.709 43.1973 214.945 42.582 215.859 41.3516C216.785 40.1094 217.248 38.2695 217.248 35.832Z" fill="#FFD700"/>
</g>
<defs>
<clipPath id="clip0_21_3">
<rect width="227" height="49.7059" fill="white" transform="translate(0.5 0.5)"/>
</clipPath>
</defs>
</svg>
